<?xml version="1.0" encoding="UTF-8" standalone="no"?>
<svg
   width="64"
   height="64"
   version="1.1"
   id="svg10"
   sodipodi:docname="pia-manager.svg"
   inkscape:version="1.4.2 (ebf0e940d0, 2025-05-08)"
   xmlns:inkscape="http://www.inkscape.org/namespaces/inkscape"
   xmlns:sodipodi="http://sodipodi.sourceforge.net/DTD/sodipodi-0.dtd"
   xmlns="http://www.w3.org/2000/svg"
   xmlns:svg="http://www.w3.org/2000/svg">
  <defs
     id="defs10" />
  <style
     type="text/css"
     id="current-color-scheme">
     .ColorScheme-Text {color:#ffffff;}
  </style>
  <sodipodi:namedview
     id="namedview10"
     pagecolor="#008000"
     bordercolor="#000000"
     borderopacity="0.25"
     inkscape:showpageshadow="2"
     inkscape:pageopacity="0.0"
     inkscape:pagecheckerboard="0"
     inkscape:deskcolor="#d1d1d1"
     inkscape:zoom="3.34375"
     inkscape:cx="23.327103"
     inkscape:cy="36.186916"
     inkscape:window-width="1145"
     inkscape:window-height="638"
     inkscape:window-x="0"
     inkscape:window-y="0"
     inkscape:window-maximized="1"
     inkscape:current-layer="svg10" />
  <path
     id="path4"
     style="display:inline;fill:currentColor"
     d="M 31.685547 4 C 22.580153 3.9993 14.999304 11.431123 15 20.599609 L 15 24.072266 C 13.177082 24.421069 11.796197 26.00187 11.78125 27.908203 C 11.269743 28.768617 10.999909 29.749615 11 30.748047 L 11 51.705078 C 11.0011 54.24622 12.722061 56.473239 15.199219 57.136719 C 15.864867 58.625823 17.353536 60.000172 18.998047 60 L 23.722656 60 C 25.28588 60.000222 26.716545 58.379484 27.425781 57 L 36.087891 57 C 36.796253 58.379082 38.226596 59.999852 39.789062 60 L 44.513672 60 C 46.10982 59.9989 47.564311 58.67843 48.255859 57.253906 C 50.993049 56.800228 52.998484 54.453272 53 51.705078 L 53 30.748047 C 53.000548 29.772189 52.743512 28.811748 52.253906 27.964844 L 52.253906 27.939453 C 52.253273 26.00894 50.850974 24.401835 49 24.064453 L 49 20.599609 C 49.000696 11.432114 41.420816 4.0007014 32.316406 4 L 31.685547 4 z M 31.755859 10 L 32.259766 10 C 37.960546 10 43 14.583937 43 20.324219 L 43 24 L 40.628906 24 C 39.592524 23.999164 38.596751 25.282782 37.855469 26 L 26.173828 26 C 25.433094 25.282742 24.43836 23.999088 23.402344 24 L 21 24 L 21 20.324219 C 21 14.583935 26.055077 10 31.755859 10 z M 37.003906 16 A 2 2 0 1 0 39 17.996094 A 2 2 0 0 0 37.003906 16 z M 26.898438 16.003906 A 2.0021018 2.0000768 0 0 0 26.996094 20 A 2.0007526 1.9987289 0 0 0 29 18 A 2.0021018 2.0000768 0 0 0 26.898438 16.003906 z M 34.962891 20.839844 A 0.49188136 0.49188136 0 0 0 34.910156 20.84375 A 0.49188136 0.49188136 0 0 0 34.636719 20.96875 A 3.9333404 3.9333404 0 0 1 29.367188 20.96875 A 0.49150798 0.49150798 0 0 0 28.703125 21.691406 A 4.8167784 4.8167784 0 0 0 35.304688 21.691406 A 0.49188136 0.49188136 0 0 0 35.015625 20.839844 A 0.49188136 0.49188136 0 0 0 34.962891 20.839844 z M 32.164062 35.003906 C 34.189828 35.091935 35.994379 36.74507 35.994141 39.009766 L 36 39.009766 C 36.00176 40.337132 35.345343 41.578202 34.248047 42.322266 C 34.050123 42.455918 33.945669 42.691178 33.980469 42.927734 L 34.964844 50.28125 C 35.020184 50.659176 34.72896 50.99931 34.347656 51 L 29.654297 51 C 29.273081 50.999418 28.980989 50.658974 29.037109 50.28125 L 30.019531 42.927734 C 30.055407 42.693312 29.953972 42.458952 29.757812 42.326172 C 27.261013 40.634396 27.460625 36.888376 30.123047 35.472656 C 30.788652 35.118727 31.488809 34.974563 32.164062 35.003906 z "
     class="ColorScheme-Text" />
</svg>
